<mxfile host="Electron" modified="2024-03-17T10:11:09.867Z" agent="Mozilla/5.0 (Windows NT 10.0; Win64; x64) AppleWebKit/537.36 (KHTML, like Gecko) draw.io/24.0.4 Chrome/120.0.6099.109 Electron/28.1.0 Safari/537.36" etag="LQoMvghplUO2JZS4Ue0M" version="24.0.4" type="device" pages="2">
  <diagram name="Page-1" id="9xqPMki2HJdJ0KM5U1Qb">
    <mxGraphModel dx="2074" dy="1196" grid="1" gridSize="10" guides="1" tooltips="1" connect="1" arrows="1" fold="1" page="1" pageScale="1" pageWidth="850" pageHeight="1100" math="0" shadow="0">
      <root>
        <mxCell id="0" />
        <mxCell id="1" parent="0" />
        <mxCell id="Ib0bN4tQrgE2PcDhBn_D-3" value="&lt;font style=&quot;font-size: 16px;&quot;&gt;Handshake()&lt;/font&gt;" style="rounded=1;whiteSpace=wrap;html=1;fillColor=#ffe6cc;strokeColor=#d79b00;" parent="1" vertex="1">
          <mxGeometry x="80" y="440" width="200" height="40" as="geometry" />
        </mxCell>
        <mxCell id="Ib0bN4tQrgE2PcDhBn_D-5" value="&lt;font style=&quot;font-size: 16px;&quot;&gt;Handshake()&lt;/font&gt;" style="rounded=1;whiteSpace=wrap;html=1;fillColor=#d5e8d4;strokeColor=#82b366;" parent="1" vertex="1">
          <mxGeometry x="320" y="440" width="200" height="40" as="geometry" />
        </mxCell>
        <mxCell id="Ib0bN4tQrgE2PcDhBn_D-6" value="&lt;font style=&quot;font-size: 16px;&quot;&gt;Handshake()&lt;/font&gt;" style="rounded=1;whiteSpace=wrap;html=1;fillColor=#dae8fc;strokeColor=#6c8ebf;" parent="1" vertex="1">
          <mxGeometry x="560" y="440" width="200" height="40" as="geometry" />
        </mxCell>
        <mxCell id="Ib0bN4tQrgE2PcDhBn_D-7" value="&lt;font style=&quot;font-size: 16px;&quot;&gt;Handshake()&lt;/font&gt;" style="rounded=1;whiteSpace=wrap;html=1;fillColor=#e1d5e7;strokeColor=#9673a6;" parent="1" vertex="1">
          <mxGeometry x="800" y="440" width="200" height="40" as="geometry" />
        </mxCell>
        <mxCell id="Ib0bN4tQrgE2PcDhBn_D-11" value="" style="endArrow=classic;html=1;rounded=0;strokeWidth=1;endWidth=15.000000000000002;fillColor=#ffe6cc;strokeColor=#d79b00;shape=flexArrow;endSize=8;" parent="1" edge="1">
          <mxGeometry width="50" height="50" relative="1" as="geometry">
            <mxPoint x="260" y="590" as="sourcePoint" />
            <mxPoint x="260" y="490" as="targetPoint" />
          </mxGeometry>
        </mxCell>
        <mxCell id="Ib0bN4tQrgE2PcDhBn_D-10" value="&lt;span style=&quot;font-size: 16px;&quot;&gt;TLS Library&lt;/span&gt;" style="rounded=1;whiteSpace=wrap;html=1;fillColor=#f8cecc;strokeColor=#b85450;" parent="1" vertex="1">
          <mxGeometry x="80" y="600" width="920" height="40" as="geometry" />
        </mxCell>
        <mxCell id="Ib0bN4tQrgE2PcDhBn_D-13" value="" style="endArrow=classic;html=1;rounded=0;strokeWidth=1;endWidth=15.000000000000002;fillColor=#ffe6cc;strokeColor=#d79b00;shape=flexArrow;endSize=8;" parent="1" edge="1">
          <mxGeometry width="50" height="50" relative="1" as="geometry">
            <mxPoint x="100" y="490" as="sourcePoint" />
            <mxPoint x="100" y="590" as="targetPoint" />
          </mxGeometry>
        </mxCell>
        <mxCell id="Ib0bN4tQrgE2PcDhBn_D-14" value="" style="endArrow=classic;html=1;rounded=0;strokeWidth=1;endWidth=15.000000000000002;fillColor=#d5e8d4;strokeColor=#82b366;shape=flexArrow;endSize=8;" parent="1" edge="1">
          <mxGeometry width="50" height="50" relative="1" as="geometry">
            <mxPoint x="499.64" y="590" as="sourcePoint" />
            <mxPoint x="499.64" y="490" as="targetPoint" />
          </mxGeometry>
        </mxCell>
        <mxCell id="Ib0bN4tQrgE2PcDhBn_D-15" value="" style="endArrow=classic;html=1;rounded=0;strokeWidth=1;endWidth=15.000000000000002;fillColor=#d5e8d4;strokeColor=#82b366;shape=flexArrow;endSize=8;" parent="1" edge="1">
          <mxGeometry width="50" height="50" relative="1" as="geometry">
            <mxPoint x="339.64" y="490" as="sourcePoint" />
            <mxPoint x="339.64" y="590" as="targetPoint" />
          </mxGeometry>
        </mxCell>
        <mxCell id="Ib0bN4tQrgE2PcDhBn_D-16" value="" style="endArrow=classic;html=1;rounded=0;strokeWidth=1;endWidth=15.000000000000002;fillColor=#dae8fc;strokeColor=#6c8ebf;shape=flexArrow;endSize=8;" parent="1" edge="1">
          <mxGeometry width="50" height="50" relative="1" as="geometry">
            <mxPoint x="740" y="590" as="sourcePoint" />
            <mxPoint x="740" y="490" as="targetPoint" />
          </mxGeometry>
        </mxCell>
        <mxCell id="Ib0bN4tQrgE2PcDhBn_D-17" value="" style="endArrow=classic;html=1;rounded=0;strokeWidth=1;endWidth=15.000000000000002;fillColor=#dae8fc;strokeColor=#6c8ebf;shape=flexArrow;endSize=8;" parent="1" edge="1">
          <mxGeometry width="50" height="50" relative="1" as="geometry">
            <mxPoint x="580" y="490" as="sourcePoint" />
            <mxPoint x="580" y="590" as="targetPoint" />
          </mxGeometry>
        </mxCell>
        <mxCell id="Ib0bN4tQrgE2PcDhBn_D-18" value="" style="endArrow=classic;html=1;rounded=0;strokeWidth=1;endWidth=15.000000000000002;fillColor=#e1d5e7;strokeColor=#9673a6;shape=flexArrow;endSize=8;" parent="1" edge="1">
          <mxGeometry width="50" height="50" relative="1" as="geometry">
            <mxPoint x="979.64" y="590" as="sourcePoint" />
            <mxPoint x="979.64" y="490" as="targetPoint" />
          </mxGeometry>
        </mxCell>
        <mxCell id="Ib0bN4tQrgE2PcDhBn_D-19" value="" style="endArrow=classic;html=1;rounded=0;strokeWidth=1;endWidth=15.000000000000002;fillColor=#e1d5e7;strokeColor=#9673a6;shape=flexArrow;endSize=8;" parent="1" edge="1">
          <mxGeometry width="50" height="50" relative="1" as="geometry">
            <mxPoint x="819.64" y="490" as="sourcePoint" />
            <mxPoint x="819.64" y="590" as="targetPoint" />
          </mxGeometry>
        </mxCell>
        <mxCell id="Ib0bN4tQrgE2PcDhBn_D-20" value="&lt;b&gt;&lt;font style=&quot;font-size: 29px;&quot;&gt;同步 TLS 处理&lt;/font&gt;&lt;/b&gt;" style="text;html=1;align=center;verticalAlign=middle;resizable=0;points=[];autosize=1;strokeColor=none;fillColor=none;" parent="1" vertex="1">
          <mxGeometry x="80" y="368" width="210" height="50" as="geometry" />
        </mxCell>
        <mxCell id="Ib0bN4tQrgE2PcDhBn_D-21" value="" style="rounded=1;whiteSpace=wrap;html=1;fillColor=#ffe6cc;strokeColor=#d79b00;" parent="1" vertex="1">
          <mxGeometry x="80" y="802" width="40" height="40" as="geometry" />
        </mxCell>
        <mxCell id="Ib0bN4tQrgE2PcDhBn_D-26" value="&lt;span style=&quot;font-size: 16px;&quot;&gt;TLS Library&lt;/span&gt;" style="rounded=1;whiteSpace=wrap;html=1;fillColor=#f8cecc;strokeColor=#b85450;" parent="1" vertex="1">
          <mxGeometry x="80" y="962" width="920" height="40" as="geometry" />
        </mxCell>
        <mxCell id="Ib0bN4tQrgE2PcDhBn_D-27" value="" style="endArrow=classic;html=1;rounded=0;strokeWidth=1;endWidth=15.000000000000002;fillColor=#ffe6cc;strokeColor=#d79b00;shape=flexArrow;" parent="1" edge="1">
          <mxGeometry width="50" height="50" relative="1" as="geometry">
            <mxPoint x="100" y="852" as="sourcePoint" />
            <mxPoint x="100" y="952" as="targetPoint" />
          </mxGeometry>
        </mxCell>
        <mxCell id="Ib0bN4tQrgE2PcDhBn_D-34" value="&lt;b&gt;&lt;font style=&quot;font-size: 29px;&quot;&gt;多缓冲区异步 TLS 处理&lt;/font&gt;&lt;/b&gt;" style="text;html=1;align=center;verticalAlign=middle;resizable=0;points=[];autosize=1;strokeColor=none;fillColor=none;" parent="1" vertex="1">
          <mxGeometry x="80" y="710" width="330" height="50" as="geometry" />
        </mxCell>
        <mxCell id="Ib0bN4tQrgE2PcDhBn_D-36" value="" style="rounded=1;whiteSpace=wrap;html=1;fillColor=#d5e8d4;strokeColor=#82b366;" parent="1" vertex="1">
          <mxGeometry x="147" y="802" width="40" height="40" as="geometry" />
        </mxCell>
        <mxCell id="Ib0bN4tQrgE2PcDhBn_D-37" value="" style="rounded=1;whiteSpace=wrap;html=1;fillColor=#dae8fc;strokeColor=#6c8ebf;" parent="1" vertex="1">
          <mxGeometry x="213" y="802" width="40" height="40" as="geometry" />
        </mxCell>
        <mxCell id="Ib0bN4tQrgE2PcDhBn_D-38" value="" style="rounded=1;whiteSpace=wrap;html=1;fillColor=#e1d5e7;strokeColor=#9673a6;" parent="1" vertex="1">
          <mxGeometry x="280" y="802" width="40" height="40" as="geometry" />
        </mxCell>
        <mxCell id="Ib0bN4tQrgE2PcDhBn_D-40" value="" style="endArrow=classic;html=1;rounded=0;strokeWidth=1;endWidth=15.000000000000002;fillColor=#dae8fc;strokeColor=#6c8ebf;shape=flexArrow;" parent="1" edge="1">
          <mxGeometry width="50" height="50" relative="1" as="geometry">
            <mxPoint x="232.64" y="852" as="sourcePoint" />
            <mxPoint x="232.64" y="952" as="targetPoint" />
          </mxGeometry>
        </mxCell>
        <mxCell id="Ib0bN4tQrgE2PcDhBn_D-41" value="" style="endArrow=classic;html=1;rounded=0;strokeWidth=1;endWidth=15.000000000000002;fillColor=#e1d5e7;strokeColor=#9673a6;shape=flexArrow;" parent="1" edge="1">
          <mxGeometry width="50" height="50" relative="1" as="geometry">
            <mxPoint x="299.64" y="850" as="sourcePoint" />
            <mxPoint x="299.64" y="950" as="targetPoint" />
          </mxGeometry>
        </mxCell>
        <mxCell id="Ib0bN4tQrgE2PcDhBn_D-42" value="" style="endArrow=classic;html=1;rounded=0;strokeWidth=1;endWidth=15.000000000000002;fillColor=#d5e8d4;strokeColor=#82b366;shape=flexArrow;" parent="1" edge="1">
          <mxGeometry width="50" height="50" relative="1" as="geometry">
            <mxPoint x="166.64" y="850" as="sourcePoint" />
            <mxPoint x="166.64" y="950" as="targetPoint" />
          </mxGeometry>
        </mxCell>
        <mxCell id="Ib0bN4tQrgE2PcDhBn_D-43" value="&lt;font style=&quot;font-size: 16px;&quot;&gt;client hello()&lt;/font&gt;" style="text;html=1;align=center;verticalAlign=middle;resizable=0;points=[];autosize=1;strokeColor=none;fillColor=none;" parent="1" vertex="1">
          <mxGeometry x="152" y="768" width="110" height="30" as="geometry" />
        </mxCell>
        <mxCell id="Ib0bN4tQrgE2PcDhBn_D-44" value="" style="rounded=1;whiteSpace=wrap;html=1;fillColor=#ffe6cc;strokeColor=#d79b00;" parent="1" vertex="1">
          <mxGeometry x="360" y="802" width="40" height="40" as="geometry" />
        </mxCell>
        <mxCell id="Ib0bN4tQrgE2PcDhBn_D-45" value="" style="endArrow=classic;html=1;rounded=0;strokeWidth=1;endWidth=15.000000000000002;fillColor=#ffe6cc;strokeColor=#d79b00;shape=flexArrow;" parent="1" edge="1">
          <mxGeometry width="50" height="50" relative="1" as="geometry">
            <mxPoint x="380" y="852" as="sourcePoint" />
            <mxPoint x="380" y="952" as="targetPoint" />
          </mxGeometry>
        </mxCell>
        <mxCell id="Ib0bN4tQrgE2PcDhBn_D-46" value="" style="rounded=1;whiteSpace=wrap;html=1;fillColor=#d5e8d4;strokeColor=#82b366;" parent="1" vertex="1">
          <mxGeometry x="427" y="802" width="40" height="40" as="geometry" />
        </mxCell>
        <mxCell id="Ib0bN4tQrgE2PcDhBn_D-47" value="" style="rounded=1;whiteSpace=wrap;html=1;fillColor=#dae8fc;strokeColor=#6c8ebf;" parent="1" vertex="1">
          <mxGeometry x="493" y="802" width="40" height="40" as="geometry" />
        </mxCell>
        <mxCell id="Ib0bN4tQrgE2PcDhBn_D-48" value="" style="rounded=1;whiteSpace=wrap;html=1;fillColor=#e1d5e7;strokeColor=#9673a6;" parent="1" vertex="1">
          <mxGeometry x="560" y="802" width="40" height="40" as="geometry" />
        </mxCell>
        <mxCell id="Ib0bN4tQrgE2PcDhBn_D-49" value="" style="endArrow=classic;html=1;rounded=0;strokeWidth=1;endWidth=15.000000000000002;fillColor=#dae8fc;strokeColor=#6c8ebf;shape=flexArrow;" parent="1" edge="1">
          <mxGeometry width="50" height="50" relative="1" as="geometry">
            <mxPoint x="512.64" y="852" as="sourcePoint" />
            <mxPoint x="512.64" y="952" as="targetPoint" />
          </mxGeometry>
        </mxCell>
        <mxCell id="Ib0bN4tQrgE2PcDhBn_D-50" value="" style="endArrow=classic;html=1;rounded=0;strokeWidth=1;endWidth=15.000000000000002;fillColor=#e1d5e7;strokeColor=#9673a6;shape=flexArrow;" parent="1" edge="1">
          <mxGeometry width="50" height="50" relative="1" as="geometry">
            <mxPoint x="579.64" y="850" as="sourcePoint" />
            <mxPoint x="579.64" y="950" as="targetPoint" />
          </mxGeometry>
        </mxCell>
        <mxCell id="Ib0bN4tQrgE2PcDhBn_D-51" value="" style="endArrow=classic;html=1;rounded=0;strokeWidth=1;endWidth=15.000000000000002;fillColor=#d5e8d4;strokeColor=#82b366;shape=flexArrow;" parent="1" edge="1">
          <mxGeometry width="50" height="50" relative="1" as="geometry">
            <mxPoint x="446.64" y="850" as="sourcePoint" />
            <mxPoint x="446.64" y="950" as="targetPoint" />
          </mxGeometry>
        </mxCell>
        <mxCell id="Ib0bN4tQrgE2PcDhBn_D-52" value="&lt;font style=&quot;font-size: 16px;&quot;&gt;client hello()&lt;/font&gt;" style="text;html=1;align=center;verticalAlign=middle;resizable=0;points=[];autosize=1;strokeColor=none;fillColor=none;" parent="1" vertex="1">
          <mxGeometry x="432" y="768" width="110" height="30" as="geometry" />
        </mxCell>
        <mxCell id="Ib0bN4tQrgE2PcDhBn_D-53" value="" style="rounded=1;whiteSpace=wrap;html=1;fillColor=#ffe6cc;strokeColor=#d79b00;" parent="1" vertex="1">
          <mxGeometry x="670" y="802" width="40" height="40" as="geometry" />
        </mxCell>
        <mxCell id="Ib0bN4tQrgE2PcDhBn_D-54" value="" style="endArrow=classic;html=1;rounded=0;strokeWidth=1;endWidth=15.000000000000002;fillColor=#ffe6cc;strokeColor=#d79b00;shape=flexArrow;" parent="1" edge="1">
          <mxGeometry width="50" height="50" relative="1" as="geometry">
            <mxPoint x="690" y="952" as="sourcePoint" />
            <mxPoint x="690" y="852" as="targetPoint" />
          </mxGeometry>
        </mxCell>
        <mxCell id="Ib0bN4tQrgE2PcDhBn_D-55" value="" style="rounded=1;whiteSpace=wrap;html=1;fillColor=#d5e8d4;strokeColor=#82b366;" parent="1" vertex="1">
          <mxGeometry x="737" y="802" width="40" height="40" as="geometry" />
        </mxCell>
        <mxCell id="Ib0bN4tQrgE2PcDhBn_D-56" value="" style="rounded=1;whiteSpace=wrap;html=1;fillColor=#dae8fc;strokeColor=#6c8ebf;" parent="1" vertex="1">
          <mxGeometry x="803" y="802" width="40" height="40" as="geometry" />
        </mxCell>
        <mxCell id="Ib0bN4tQrgE2PcDhBn_D-57" value="" style="rounded=1;whiteSpace=wrap;html=1;fillColor=#e1d5e7;strokeColor=#9673a6;" parent="1" vertex="1">
          <mxGeometry x="870" y="802" width="40" height="40" as="geometry" />
        </mxCell>
        <mxCell id="Ib0bN4tQrgE2PcDhBn_D-58" value="" style="endArrow=classic;html=1;rounded=0;strokeWidth=1;endWidth=15.000000000000002;fillColor=#dae8fc;strokeColor=#6c8ebf;shape=flexArrow;" parent="1" edge="1">
          <mxGeometry width="50" height="50" relative="1" as="geometry">
            <mxPoint x="822.64" y="952" as="sourcePoint" />
            <mxPoint x="822.64" y="852" as="targetPoint" />
          </mxGeometry>
        </mxCell>
        <mxCell id="Ib0bN4tQrgE2PcDhBn_D-59" value="" style="endArrow=classic;html=1;rounded=0;strokeWidth=1;endWidth=15.000000000000002;fillColor=#e1d5e7;strokeColor=#9673a6;shape=flexArrow;" parent="1" edge="1">
          <mxGeometry width="50" height="50" relative="1" as="geometry">
            <mxPoint x="889.64" y="950" as="sourcePoint" />
            <mxPoint x="889.64" y="850" as="targetPoint" />
          </mxGeometry>
        </mxCell>
        <mxCell id="Ib0bN4tQrgE2PcDhBn_D-60" value="" style="endArrow=classic;html=1;rounded=0;strokeWidth=1;endWidth=15.000000000000002;fillColor=#d5e8d4;strokeColor=#82b366;shape=flexArrow;" parent="1" edge="1">
          <mxGeometry width="50" height="50" relative="1" as="geometry">
            <mxPoint x="756.64" y="950" as="sourcePoint" />
            <mxPoint x="756.64" y="850" as="targetPoint" />
          </mxGeometry>
        </mxCell>
        <mxCell id="Ib0bN4tQrgE2PcDhBn_D-61" value="&lt;font style=&quot;font-size: 16px;&quot;&gt;server hello()&lt;/font&gt;" style="text;html=1;align=center;verticalAlign=middle;resizable=0;points=[];autosize=1;strokeColor=none;fillColor=none;" parent="1" vertex="1">
          <mxGeometry x="723" y="768" width="120" height="30" as="geometry" />
        </mxCell>
      </root>
    </mxGraphModel>
  </diagram>
  <diagram id="JChOB8osVhumYB5Pp03t" name="Page-2">
    <mxGraphModel dx="1152" dy="611" grid="1" gridSize="10" guides="1" tooltips="1" connect="1" arrows="1" fold="1" page="1" pageScale="1" pageWidth="850" pageHeight="1100" math="0" shadow="0">
      <root>
        <mxCell id="0" />
        <mxCell id="1" parent="0" />
        <mxCell id="O9ch_L1mAjFb6hnd75t0-26" value="" style="edgeStyle=orthogonalEdgeStyle;rounded=0;orthogonalLoop=1;jettySize=auto;html=1;" edge="1" parent="1" source="O9ch_L1mAjFb6hnd75t0-1" target="O9ch_L1mAjFb6hnd75t0-25">
          <mxGeometry relative="1" as="geometry" />
        </mxCell>
        <mxCell id="O9ch_L1mAjFb6hnd75t0-1" value="" style="rounded=1;whiteSpace=wrap;html=1;fillColor=#dae8fc;strokeColor=#6c8ebf;" vertex="1" parent="1">
          <mxGeometry x="40" y="330" width="580" height="60" as="geometry" />
        </mxCell>
        <mxCell id="O9ch_L1mAjFb6hnd75t0-2" value="RSA" style="rounded=0;whiteSpace=wrap;html=1;fillColor=#f8cecc;strokeColor=#b85450;" vertex="1" parent="1">
          <mxGeometry x="70" y="340" width="40" height="40" as="geometry" />
        </mxCell>
        <mxCell id="O9ch_L1mAjFb6hnd75t0-3" value="RSA" style="rounded=0;whiteSpace=wrap;html=1;fillColor=#f8cecc;strokeColor=#b85450;" vertex="1" parent="1">
          <mxGeometry x="130" y="340" width="40" height="40" as="geometry" />
        </mxCell>
        <mxCell id="O9ch_L1mAjFb6hnd75t0-4" value="RSA" style="rounded=0;whiteSpace=wrap;html=1;fillColor=#f8cecc;strokeColor=#b85450;" vertex="1" parent="1">
          <mxGeometry x="190" y="340" width="40" height="40" as="geometry" />
        </mxCell>
        <mxCell id="O9ch_L1mAjFb6hnd75t0-5" value="RSA" style="rounded=0;whiteSpace=wrap;html=1;fillColor=#f8cecc;strokeColor=#b85450;" vertex="1" parent="1">
          <mxGeometry x="250" y="340" width="40" height="40" as="geometry" />
        </mxCell>
        <mxCell id="O9ch_L1mAjFb6hnd75t0-6" value="RSA" style="rounded=0;whiteSpace=wrap;html=1;fillColor=#f8cecc;strokeColor=#b85450;" vertex="1" parent="1">
          <mxGeometry x="310" y="340" width="40" height="40" as="geometry" />
        </mxCell>
        <mxCell id="O9ch_L1mAjFb6hnd75t0-7" value="RSA" style="rounded=0;whiteSpace=wrap;html=1;fillColor=#f8cecc;strokeColor=#b85450;" vertex="1" parent="1">
          <mxGeometry x="370" y="340" width="40" height="40" as="geometry" />
        </mxCell>
        <mxCell id="O9ch_L1mAjFb6hnd75t0-8" value="RSA" style="rounded=0;whiteSpace=wrap;html=1;fillColor=#f8cecc;strokeColor=#b85450;" vertex="1" parent="1">
          <mxGeometry x="430" y="340" width="40" height="40" as="geometry" />
        </mxCell>
        <mxCell id="O9ch_L1mAjFb6hnd75t0-9" value="RSA" style="rounded=0;whiteSpace=wrap;html=1;fillColor=#f8cecc;strokeColor=#b85450;" vertex="1" parent="1">
          <mxGeometry x="490" y="340" width="40" height="40" as="geometry" />
        </mxCell>
        <mxCell id="O9ch_L1mAjFb6hnd75t0-10" value="&lt;font style=&quot;font-size: 14px;&quot;&gt;Buffer full&lt;/font&gt;" style="text;html=1;align=center;verticalAlign=middle;resizable=0;points=[];autosize=1;strokeColor=none;fillColor=none;" vertex="1" parent="1">
          <mxGeometry x="290" y="400" width="80" height="30" as="geometry" />
        </mxCell>
        <mxCell id="O9ch_L1mAjFb6hnd75t0-11" value="Timer" style="ellipse;whiteSpace=wrap;html=1;aspect=fixed;" vertex="1" parent="1">
          <mxGeometry x="560" y="340" width="40" height="40" as="geometry" />
        </mxCell>
        <mxCell id="O9ch_L1mAjFb6hnd75t0-24" value="" style="edgeStyle=orthogonalEdgeStyle;rounded=0;orthogonalLoop=1;jettySize=auto;html=1;" edge="1" parent="1" source="O9ch_L1mAjFb6hnd75t0-12" target="O9ch_L1mAjFb6hnd75t0-23">
          <mxGeometry relative="1" as="geometry" />
        </mxCell>
        <mxCell id="O9ch_L1mAjFb6hnd75t0-12" value="" style="rounded=1;whiteSpace=wrap;html=1;fillColor=#dae8fc;strokeColor=#6c8ebf;" vertex="1" parent="1">
          <mxGeometry x="40" y="480" width="580" height="60" as="geometry" />
        </mxCell>
        <mxCell id="O9ch_L1mAjFb6hnd75t0-13" value="RSA" style="rounded=0;whiteSpace=wrap;html=1;fillColor=#f8cecc;strokeColor=#b85450;" vertex="1" parent="1">
          <mxGeometry x="70" y="490" width="40" height="40" as="geometry" />
        </mxCell>
        <mxCell id="O9ch_L1mAjFb6hnd75t0-14" value="RSA" style="rounded=0;whiteSpace=wrap;html=1;fillColor=#f8cecc;strokeColor=#b85450;" vertex="1" parent="1">
          <mxGeometry x="130" y="490" width="40" height="40" as="geometry" />
        </mxCell>
        <mxCell id="O9ch_L1mAjFb6hnd75t0-15" value="RSA" style="rounded=0;whiteSpace=wrap;html=1;fillColor=#f8cecc;strokeColor=#b85450;" vertex="1" parent="1">
          <mxGeometry x="190" y="490" width="40" height="40" as="geometry" />
        </mxCell>
        <mxCell id="O9ch_L1mAjFb6hnd75t0-16" value="RSA" style="rounded=0;whiteSpace=wrap;html=1;fillColor=#f8cecc;strokeColor=#b85450;" vertex="1" parent="1">
          <mxGeometry x="250" y="490" width="40" height="40" as="geometry" />
        </mxCell>
        <mxCell id="O9ch_L1mAjFb6hnd75t0-17" value="" style="rounded=0;whiteSpace=wrap;html=1;" vertex="1" parent="1">
          <mxGeometry x="310" y="490" width="40" height="40" as="geometry" />
        </mxCell>
        <mxCell id="O9ch_L1mAjFb6hnd75t0-18" value="" style="rounded=0;whiteSpace=wrap;html=1;" vertex="1" parent="1">
          <mxGeometry x="370" y="490" width="40" height="40" as="geometry" />
        </mxCell>
        <mxCell id="O9ch_L1mAjFb6hnd75t0-19" value="" style="rounded=0;whiteSpace=wrap;html=1;" vertex="1" parent="1">
          <mxGeometry x="430" y="490" width="40" height="40" as="geometry" />
        </mxCell>
        <mxCell id="O9ch_L1mAjFb6hnd75t0-20" value="" style="rounded=0;whiteSpace=wrap;html=1;" vertex="1" parent="1">
          <mxGeometry x="490" y="490" width="40" height="40" as="geometry" />
        </mxCell>
        <mxCell id="O9ch_L1mAjFb6hnd75t0-21" value="&lt;font style=&quot;font-size: 14px;&quot;&gt;Buffer timer expired&lt;/font&gt;" style="text;html=1;align=center;verticalAlign=middle;resizable=0;points=[];autosize=1;strokeColor=none;fillColor=none;" vertex="1" parent="1">
          <mxGeometry x="255" y="550" width="150" height="30" as="geometry" />
        </mxCell>
        <mxCell id="O9ch_L1mAjFb6hnd75t0-22" value="Timer" style="ellipse;whiteSpace=wrap;html=1;aspect=fixed;fillColor=#ffe6cc;strokeColor=#d79b00;" vertex="1" parent="1">
          <mxGeometry x="560" y="490" width="40" height="40" as="geometry" />
        </mxCell>
        <mxCell id="O9ch_L1mAjFb6hnd75t0-23" value="Crypto Computing" style="rounded=1;whiteSpace=wrap;html=1;" vertex="1" parent="1">
          <mxGeometry x="660" y="480" width="120" height="60" as="geometry" />
        </mxCell>
        <mxCell id="O9ch_L1mAjFb6hnd75t0-25" value="Crypto Computing" style="rounded=1;whiteSpace=wrap;html=1;" vertex="1" parent="1">
          <mxGeometry x="660" y="330" width="120" height="60" as="geometry" />
        </mxCell>
        <mxCell id="O9ch_L1mAjFb6hnd75t0-27" value="&lt;b&gt;&lt;font style=&quot;font-size: 17px;&quot;&gt;缓冲区已满&lt;/font&gt;&lt;/b&gt;" style="text;html=1;align=center;verticalAlign=middle;resizable=0;points=[];autosize=1;strokeColor=none;fillColor=none;" vertex="1" parent="1">
          <mxGeometry x="40" y="290" width="110" height="30" as="geometry" />
        </mxCell>
        <mxCell id="O9ch_L1mAjFb6hnd75t0-28" value="&lt;span style=&quot;font-size: 17px;&quot;&gt;&lt;b&gt;缓冲区计时器到期&lt;/b&gt;&lt;/span&gt;" style="text;html=1;align=center;verticalAlign=middle;resizable=0;points=[];autosize=1;strokeColor=none;fillColor=none;" vertex="1" parent="1">
          <mxGeometry x="40" y="440" width="160" height="30" as="geometry" />
        </mxCell>
      </root>
    </mxGraphModel>
  </diagram>
</mxfile>
